<svg width="55" height="55" viewBox="0 0 55 55" fill="none" xmlns="http://www.w3.org/2000/svg">
<g clip-path="url(#clip0_36_767)">
<path d="M27.5 55C42.6878 55 55 42.6878 55 27.5C55 12.3122 42.6878 0 27.5 0C12.3122 0 0 12.3122 0 27.5C0 42.6878 12.3122 55 27.5 55Z" fill="url(#paint0_linear_36_767)"/>
<path d="M16.2937 35.939C18.2273 35.939 19.7914 34.375 19.7914 32.4414C19.7914 30.5078 18.2273 28.9437 16.2937 28.9437C14.3602 28.9437 12.7961 30.5078 12.7961 32.4414C12.7961 34.375 14.3602 35.939 16.2937 35.939ZM16.2937 36.6953C12.7531 36.6953 9.88281 39.5656 9.88281 43.1148H22.7047C22.7047 39.5656 19.8344 36.6953 16.2937 36.6953Z" fill="white"/>
<path d="M42.9516 14.9101C40.6141 12.4094 37.5977 11.8851 35.4836 11.8851C35.2086 11.8851 34.9422 11.8937 34.693 11.9109C32.4672 12.0398 30.4305 12.8906 28.9609 14.3C27.1563 16.0359 26.7438 17.9953 26.718 19.3359C26.7094 20.0492 26.8641 20.7883 27.1992 21.5187C27.3195 21.7851 27.3281 22 27.225 22.189C27.1477 22.3179 27.0617 22.4726 26.95 22.6617C26.1766 23.9851 25.7297 24.8445 25.9445 25.5406C26.0305 25.8242 26.2367 26.0562 26.5031 26.1851C26.6578 26.2539 26.8297 26.3226 27.0188 26.3828C27.0188 26.5375 27.0016 26.7265 26.9844 26.9156C26.95 27.2594 27.0703 27.5773 27.3281 27.8351C27.2937 28.0242 27.3023 28.2218 27.3711 28.4023C27.457 28.6515 27.6203 28.9008 27.8695 29.15C27.8008 29.3906 27.5945 30.2156 28.007 30.8945C28.2391 31.2898 28.6258 31.5562 29.107 31.6594C29.382 31.7195 29.6484 31.7453 29.9578 31.7453C30.25 31.7453 30.5422 31.7195 30.8602 31.6937L31.1609 31.6679C31.1867 31.6679 31.2125 31.6679 31.2469 31.6679C31.582 31.6679 31.8055 31.8226 31.9258 31.9515C32.175 32.2094 32.2953 32.5961 32.2523 32.9914C32.2438 33.0859 32.2523 33.232 32.2695 33.3179C32.3555 33.6875 32.682 33.9367 33.0516 33.9367H41.9805C42.2383 33.9367 42.4875 33.8078 42.6422 33.5929C42.7969 33.3781 42.8313 33.1031 42.7453 32.8625C42.6422 32.5789 42.4531 31.9 42.3758 31.5906C41.7914 29.2703 42.1953 27.0273 43.5703 24.9133C44.6359 23.2547 46.7328 18.9492 42.9516 14.9101ZM42.2039 24.0367C40.5797 26.5461 40.107 29.2187 40.8031 31.9859C40.8203 32.0719 40.8547 32.1922 40.8891 32.3211H33.8164C33.7219 31.7539 33.4555 31.2211 33.0688 30.8172C32.5789 30.3187 31.9344 30.0437 31.2383 30.0437C31.1695 30.0437 31.1008 30.0437 31.0234 30.0523L30.7055 30.0781C30.4219 30.1039 30.1727 30.1211 29.9492 30.1211C29.7516 30.1211 29.5883 30.1039 29.425 30.0695C29.3992 30.0609 29.3734 30.0609 29.3734 30.0609C29.3477 30.0008 29.3391 29.8031 29.3992 29.6226C29.5797 29.0554 29.4336 28.5484 29.2445 28.2648C29.2102 28.2133 29.1672 28.1617 29.1156 28.1187C29.0555 28.0672 29.0125 28.0242 28.9781 27.9898L29.0297 27.8695C29.193 27.5086 29.0641 27.0875 28.7375 26.8726L28.6086 26.7867C28.6516 26.2453 28.6172 25.7726 28.6086 25.6781C28.5742 25.3086 28.2992 25.0078 27.9297 24.9476C27.9297 24.9476 27.7836 24.9219 27.5859 24.8703C27.7664 24.4406 28.1445 23.7875 28.3336 23.4781C28.4367 23.2976 28.5398 23.1258 28.6258 22.9711C28.9781 22.3265 28.9867 21.5961 28.6602 20.857C28.4281 20.3414 28.3164 19.8344 28.325 19.3617C28.3422 18.3304 28.6602 16.8094 30.0695 15.4601C31.2641 14.3172 32.9313 13.6297 34.7789 13.5179C35.0023 13.5008 35.2344 13.5008 35.475 13.5008C37.2711 13.5008 39.8234 13.939 41.7656 16.0101C44.6703 19.1039 43.2867 22.3695 42.2039 24.0367Z" fill="white"/>
<path d="M34.2461 25.1109C34.2461 25.4289 34.5039 25.6867 34.8219 25.6867L34.9164 25.9102C34.9508 25.9961 35.0453 26.2109 35.2 26.2711L35.243 26.2883L36.3688 26.2797L36.4203 26.2453C36.5492 26.168 36.6352 25.9617 36.6609 25.9016L36.7555 25.6695C37.0735 25.6695 37.3313 25.4117 37.3313 25.0937V24.6641H34.2461V25.1109ZM38.1734 16.5516C37.5117 15.9586 36.6867 15.6406 35.793 15.6406C35.6555 15.6406 35.518 15.6492 35.3805 15.6664C33.7047 15.8555 32.3383 17.2734 32.218 18.9578C32.1492 19.9891 32.5016 20.9602 33.2149 21.6992C33.7992 22.3008 34.143 23.0828 34.2289 23.968L34.2461 24.1656H35.4492V21.493L34.1258 20.5305C34.057 20.4789 34.0055 20.4016 33.9883 20.3156C33.9711 20.2297 33.9969 20.1437 34.0484 20.0664C34.1086 19.9805 34.2117 19.9289 34.3149 19.9289C34.3836 19.9289 34.4524 19.9547 34.5125 19.9891L35.7758 20.9172L37.0391 19.9977C37.0992 19.9547 37.168 19.9375 37.2367 19.9375C37.3485 19.9375 37.443 19.9891 37.5031 20.075C37.5547 20.1437 37.5805 20.2383 37.5633 20.3242C37.5461 20.4102 37.5031 20.4875 37.4258 20.5391L36.1024 21.5016V24.1742H37.3055L37.3227 23.968C37.3914 23.1086 37.7438 22.3094 38.3195 21.7336C38.9813 21.0547 39.3508 20.1695 39.3508 19.2242C39.3594 18.2016 38.9297 17.2305 38.1734 16.5516ZM25.4719 18.107L24.5695 17.0242C24.4492 16.8781 24.2688 16.7922 24.0711 16.7922C23.925 16.7922 23.7703 16.8437 23.6586 16.9383C23.5297 17.05 23.4438 17.2047 23.4266 17.3766C23.4094 17.5484 23.4609 17.7203 23.5727 17.8492L23.5899 17.875H16.2336C15.8813 17.875 15.5891 18.1672 15.5891 18.5195V25.4977L15.5633 25.4805C15.4516 25.3859 15.3055 25.3344 15.1508 25.3344C14.9617 25.3344 14.7813 25.4203 14.6524 25.5664C14.5406 25.6953 14.4891 25.8672 14.5063 26.0391C14.5234 26.2109 14.6008 26.3656 14.7383 26.4773L15.8211 27.3797C15.8469 27.4055 15.8727 27.4141 15.9414 27.4484L16.0016 27.4828C16.0789 27.5172 16.1563 27.5258 16.2336 27.5258C16.3109 27.5258 16.3883 27.5086 16.4656 27.4742L16.5688 27.4227C16.5945 27.4141 16.6203 27.3969 16.6461 27.3711L17.7289 26.4687C18.0039 26.2367 18.0383 25.8328 17.8149 25.5578C17.6945 25.4117 17.5141 25.3258 17.3164 25.3258C17.1703 25.3258 17.0156 25.3773 16.9039 25.4719L16.8867 25.4891V19.1555H23.5984L23.5813 19.1812C23.4695 19.3102 23.418 19.482 23.4352 19.6539C23.4524 19.8258 23.5297 19.9805 23.6672 20.0922C23.7789 20.1867 23.9336 20.2383 24.0797 20.2383C24.2688 20.2383 24.4492 20.1523 24.5781 20.0062L25.4805 18.9234C25.5234 18.8719 25.5492 18.8203 25.575 18.7602C25.6438 18.5969 25.6438 18.425 25.575 18.2531C25.5406 18.2187 25.5149 18.1586 25.4719 18.107Z" fill="white"/>
</g>
<defs>
<linearGradient id="paint0_linear_36_767" x1="60.6299" y1="-374" x2="-195.793" y2="-290.641" gradientUnits="userSpaceOnUse">
<stop offset="0.466322" stop-color="#B463FD"/>
<stop offset="0.536558" stop-color="#6D94FD"/>
<stop offset="0.618696" stop-color="#71C5FF"/>
<stop offset="0.713132" stop-color="#3FFAFE"/>
</linearGradient>
<clipPath id="clip0_36_767">
<rect width="55" height="55" fill="white"/>
</clipPath>
</defs>
</svg>
