<svg width="55" height="55" viewBox="0 0 55 55" fill="none" xmlns="http://www.w3.org/2000/svg">
<g clip-path="url(#clip0_323_315)">
<path d="M27.5 55C42.6878 55 55 42.6878 55 27.5C55 12.3122 42.6878 0 27.5 0C12.3122 0 0 12.3122 0 27.5C0 42.6878 12.3122 55 27.5 55Z" fill="url(#paint0_linear_323_315)"/>
</g>
<g clip-path="url(#clip1_323_315)">
<path d="M38.7813 12C39.3773 12.379 39.6896 12.621 40 13.2656C40.1432 14.1747 40.2039 15.0186 39.7398 15.8298C39.3719 16.2675 38.9861 16.665 38.5781 17.0625C38.2774 17.3786 37.9769 17.695 37.6768 18.0117C37.4361 18.2584 37.1951 18.5047 36.9531 18.75C37.1479 18.7892 37.1479 18.7892 37.3467 18.8291C37.4849 18.8726 37.6232 18.9161 37.7656 18.961C38.0995 19.6544 37.9968 20.424 37.995 21.1861C37.9956 21.466 37.9956 21.466 37.9961 21.7516C37.997 22.3704 37.9964 22.9893 37.9957 23.6082C37.9959 24.0369 37.9961 24.4657 37.9963 24.8944C37.9966 25.7938 37.9962 26.6932 37.9952 27.5926C37.9941 28.7474 37.9948 29.9022 37.996 31.0571C37.9967 31.9427 37.9965 32.8282 37.9959 33.7138C37.9958 34.1397 37.996 34.5656 37.9964 34.9915C37.997 35.586 37.9962 36.1804 37.995 36.7749C37.9955 36.9522 37.9959 37.1295 37.9963 37.3122C37.992 38.5299 37.992 38.5299 37.7656 39C34.697 39.0049 31.6283 39.0087 28.5597 39.0109C27.1349 39.012 25.7102 39.0135 24.2854 39.0159C22.9118 39.0182 21.5381 39.0195 20.1645 39.02C19.6391 39.0204 19.1137 39.0212 18.5883 39.0223C17.8552 39.0238 17.1222 39.0241 16.3892 39.024C16.0598 39.0251 16.0598 39.0251 15.7237 39.0263C15.5252 39.026 15.3266 39.0257 15.1221 39.0254C14.9485 39.0256 14.7749 39.0258 14.5961 39.026C14.2031 39 14.2031 39 14 38.7891C13.9796 38.1803 13.9724 37.5766 13.9737 36.9677C13.9734 36.7767 13.973 36.5856 13.9727 36.3888C13.9718 35.7541 13.9724 35.1194 13.973 34.4846C13.9729 34.0456 13.9727 33.6066 13.9724 33.1676C13.9721 32.2462 13.9726 31.3248 13.9735 30.4034C13.9747 29.2194 13.974 28.0355 13.9728 26.8516C13.9721 25.9446 13.9723 25.0377 13.9728 24.1308C13.973 23.6941 13.9728 23.2574 13.9723 22.8208C13.9718 22.2116 13.9726 21.6024 13.9737 20.9933C13.9733 20.8109 13.9729 20.6286 13.9725 20.4407C13.9768 19.196 13.9768 19.196 14.2031 18.961C14.6811 18.9456 15.1595 18.9433 15.6377 18.9478C15.8998 18.9497 16.1619 18.9516 16.432 18.9535C16.6349 18.956 16.8378 18.9584 17.0469 18.961C17.0445 18.8264 17.0422 18.6918 17.0397 18.5531C17.0379 18.3788 17.0361 18.2045 17.0342 18.0249C17.0318 17.8512 17.0295 17.6774 17.0271 17.4984C17.0469 17.0625 17.0469 17.0625 17.25 16.8516C18.1583 16.7855 19.0693 16.7928 19.9795 16.7857C20.2328 16.7795 20.4862 16.7734 20.7472 16.7671C22.5842 16.7541 24.0074 17.0045 25.5329 18.1007C25.6819 18.1758 25.8309 18.2508 25.9844 18.3281C26.5657 18.136 26.5657 18.136 27.1143 17.7481C28.6137 16.7892 28.6137 16.7892 29.6272 16.9406C30.8612 17.0606 31.6457 16.9852 32.631 16.2002C33.8098 15.0825 34.8926 13.8752 35.9544 12.6382C36.7404 11.7757 37.6977 11.8673 38.7813 12ZM37.3594 13.6875C36.898 14.0787 36.898 14.0787 36.5469 14.5313C36.681 14.8097 36.815 15.0881 36.9531 15.375C37.7287 15.4549 37.7287 15.4549 38.1338 15.1113C38.4271 14.7515 38.4271 14.7515 38.3115 14.2808C38.2655 14.1546 38.2194 14.0284 38.1719 13.8985C37.81 13.7163 37.81 13.7163 37.3594 13.6875ZM35.125 16.0078C33.3152 17.8873 31.5053 19.7667 29.6406 21.7031C29.9758 22.0512 30.311 22.3992 30.6563 22.7578C32.4661 20.8784 34.276 18.9989 36.1406 17.0625C35.8055 16.7145 35.4703 16.3664 35.125 16.0078ZM18.6719 18.5391C18.6719 23.6902 18.6719 28.8413 18.6719 34.1485C19.8114 34.2877 20.951 34.4269 22.125 34.5703C23.2074 34.9264 24.1657 35.31 25.1719 35.836C25.1954 33.8153 25.2135 31.7948 25.2245 29.774C25.2298 28.8357 25.237 27.8975 25.2485 26.9593C25.2595 26.0538 25.2656 25.1485 25.2682 24.243C25.2701 23.8975 25.2738 23.552 25.2793 23.2066C25.2866 22.7227 25.2877 22.2392 25.2872 21.7553C25.2894 21.4798 25.2917 21.2044 25.294 20.9206C25.2319 20.1923 25.2319 20.1923 24.6833 19.7258C22.6302 18.3895 21.3347 18.5391 18.6719 18.5391ZM29.3439 18.6808C29.1486 18.7558 28.9532 18.8309 28.752 18.9082C28.4605 19.0175 28.4605 19.0175 28.1632 19.129C27.4079 19.4665 27.4079 19.4665 26.7969 20.0156C26.6983 20.7387 26.6983 20.7387 26.7461 21.5318C26.7534 21.8001 26.7608 22.0685 26.7683 22.345C26.7778 22.5509 26.7872 22.7567 26.7969 22.9688C27.1244 22.5315 27.4165 22.1061 27.6768 21.6216C28.0957 20.94 28.6146 20.4026 29.1709 19.8443C29.2747 19.7383 29.3786 19.6324 29.4855 19.5233C29.7394 19.2646 29.9946 19.0072 30.25 18.75C29.8395 18.4783 29.8395 18.4783 29.3439 18.6808ZM15.625 20.6485C15.625 26.1476 15.625 31.6467 15.625 37.3125C18.3733 37.3125 21.1216 37.3125 23.9531 37.3125C21.8379 35.665 19.9981 35.8968 17.25 35.625C17.183 30.6827 17.116 25.7405 17.0469 20.6485C16.5777 20.6485 16.1085 20.6485 15.625 20.6485ZM34.9219 20.6485C34.8549 25.6603 34.7878 30.6722 34.7188 35.836C33.8474 35.836 32.976 35.836 32.0781 35.836C30.5159 36.0287 29.3728 36.2885 28.0156 37.1016C28.0156 37.1712 28.0156 37.2408 28.0156 37.3125C30.7639 37.3125 33.5122 37.3125 36.3438 37.3125C36.3438 31.8134 36.3438 26.3142 36.3438 20.6485C35.8745 20.6485 35.4053 20.6485 34.9219 20.6485ZM33.0938 22.5469C32.9127 22.7651 32.9127 22.7651 32.728 22.9877C31.0275 24.9898 29.1732 25.7554 26.7969 26.7656C26.7969 29.6892 26.7969 32.6128 26.7969 35.625C27.7096 35.3091 27.7096 35.3091 28.6195 34.9848C28.8266 34.9133 29.0337 34.8418 29.2471 34.7681C29.4505 34.696 29.654 34.624 29.8636 34.5497C30.9857 34.2803 32.1486 34.2402 33.2969 34.1485C33.2969 30.3199 33.2969 26.4914 33.2969 22.5469C33.2299 22.5469 33.1628 22.5469 33.0938 22.5469Z" fill="white"/>
<path d="M29.1527 30.5419C29.455 30.5433 29.7573 30.5458 30.0596 30.5493C30.2137 30.5502 30.3678 30.5512 30.5265 30.5522C30.9083 30.5547 31.2901 30.5584 31.6719 30.5625C31.7988 31.1689 31.7988 31.1689 31.875 31.8281C31.4688 32.25 31.4688 32.25 30.8213 32.2986C30.5657 32.2956 30.3102 32.2926 30.0469 32.2895C29.7913 32.2882 29.5358 32.2868 29.2725 32.2854C28.625 32.25 28.625 32.25 28.2188 32.039C28.2101 31.6173 28.2105 31.1952 28.2188 30.7734C28.4219 30.5625 28.4219 30.5625 29.1527 30.5419Z" fill="white"/>
<path d="M21.0277 30.5419C21.33 30.5433 21.6323 30.5458 21.9346 30.5493C22.0887 30.5502 22.2428 30.5512 22.4015 30.5522C22.7833 30.5547 23.1651 30.5584 23.5469 30.5625C23.6738 31.1689 23.6738 31.1689 23.75 31.8281C23.3438 32.25 23.3438 32.25 22.6963 32.2986C22.4407 32.2956 22.1852 32.2926 21.9219 32.2895C21.6663 32.2882 21.4108 32.2868 21.1475 32.2854C20.5 32.25 20.5 32.25 20.0938 32.039C20.0851 31.6173 20.0855 31.1952 20.0938 30.7734C20.2969 30.5625 20.2969 30.5625 21.0277 30.5419Z" fill="white"/>
<path d="M29.1527 27.3778C29.455 27.3792 29.7573 27.3817 30.0596 27.3852C30.2137 27.3862 30.3678 27.3871 30.5265 27.3881C30.9083 27.3906 31.2901 27.3944 31.6719 27.3984C31.7988 28.0049 31.7988 28.0049 31.875 28.664C31.4688 29.0859 31.4688 29.0859 30.8213 29.1345C30.5657 29.1315 30.3102 29.1285 30.0469 29.1255C29.7913 29.1241 29.5358 29.1227 29.2725 29.1213C28.625 29.0859 28.625 29.0859 28.2188 28.875C28.2101 28.4532 28.2105 28.0311 28.2188 27.6093C28.4219 27.3984 28.4219 27.3984 29.1527 27.3778Z" fill="white"/>
<path d="M21.0277 27.3778C21.33 27.3792 21.6323 27.3817 21.9346 27.3852C22.0887 27.3862 22.2428 27.3871 22.4015 27.3881C22.7833 27.3906 23.1651 27.3944 23.5469 27.3984C23.6738 28.0049 23.6738 28.0049 23.75 28.664C23.3438 29.0859 23.3438 29.0859 22.6963 29.1345C22.4407 29.1315 22.1852 29.1285 21.9219 29.1255C21.6663 29.1241 21.4108 29.1227 21.1475 29.1213C20.5 29.0859 20.5 29.0859 20.0938 28.875C20.0851 28.4532 20.0855 28.0311 20.0938 27.6093C20.2969 27.3984 20.2969 27.3984 21.0277 27.3778Z" fill="white"/>
<path d="M21.0277 24.2137C21.33 24.2152 21.6323 24.2177 21.9346 24.2212C22.0887 24.2221 22.2428 24.2231 22.4015 24.224C22.7833 24.2265 23.1651 24.2303 23.5469 24.2343C23.6738 24.8408 23.6738 24.8408 23.75 25.5C23.3438 25.9218 23.3438 25.9218 22.6963 25.9705C22.4407 25.9675 22.1852 25.9645 21.9219 25.9614C21.6663 25.96 21.4108 25.9587 21.1475 25.9573C20.5 25.9218 20.5 25.9218 20.0938 25.7109C20.0851 25.2891 20.0855 24.8671 20.0938 24.4453C20.2969 24.2343 20.2969 24.2343 21.0277 24.2137Z" fill="white"/>
<path d="M21.0277 21.0497C21.33 21.0511 21.6323 21.0536 21.9346 21.0571C22.0887 21.0581 22.2428 21.059 22.4015 21.06C22.7833 21.0625 23.1651 21.0663 23.5469 21.0703C23.6738 21.6767 23.6738 21.6767 23.75 22.3359C23.3438 22.7578 23.3438 22.7578 22.6963 22.8064C22.4407 22.8034 22.1852 22.8004 21.9219 22.7973C21.6663 22.796 21.4108 22.7946 21.1475 22.7932C20.5 22.7578 20.5 22.7578 20.0938 22.5468C20.0851 22.1251 20.0855 21.703 20.0938 21.2812C20.2969 21.0703 20.2969 21.0703 21.0277 21.0497Z" fill="white"/>
</g>
<defs>
<linearGradient id="paint0_linear_323_315" x1="60.6299" y1="-374" x2="-195.793" y2="-290.641" gradientUnits="userSpaceOnUse">
<stop offset="0.466322" stop-color="#B463FD"/>
<stop offset="0.536558" stop-color="#6D94FD"/>
<stop offset="0.618696" stop-color="#71C5FF"/>
<stop offset="0.713132" stop-color="#3FFAFE"/>
</linearGradient>
<clipPath id="clip0_323_315">
<rect width="55" height="55" fill="white"/>
</clipPath>
<clipPath id="clip1_323_315">
<rect width="26" height="27" fill="white" transform="translate(14 12)"/>
</clipPath>
</defs>
</svg>
