<svg width="55" height="55" viewBox="0 0 55 55" fill="none" xmlns="http://www.w3.org/2000/svg">
<g clip-path="url(#clip0_36_773)">
<path d="M27.5 55C42.6878 55 55 42.6878 55 27.5C55 12.3122 42.6878 0 27.5 0C12.3122 0 0 12.3122 0 27.5C0 42.6878 12.3122 55 27.5 55Z" fill="url(#paint0_linear_36_773)"/>
<path d="M33.1687 25.6718H27.3596C26.5495 25.6718 25.8927 26.4172 25.8927 27.3368V31.7781C25.8927 32.6977 26.5495 33.4431 27.3596 33.4431H33.1687C33.9788 33.4431 34.6355 32.6977 34.6355 31.7781V27.3368C34.6355 26.4172 33.9788 25.6718 33.1687 25.6718Z" fill="white"/>
<path d="M35.5001 36.5477H24.8475C24.7349 36.5477 24.6241 36.5253 24.5182 36.5127C24.2581 36.4561 24.0155 36.3372 23.8113 36.1663C23.6071 35.9954 23.4473 35.7776 23.3457 35.5315L23.2185 35.2838H18.5556V25.587H23.6372" fill="white"/>
<path d="M35.5001 36.5477H24.8475C24.7349 36.5477 24.6241 36.5253 24.5182 36.5127C24.2581 36.4561 24.0155 36.3372 23.8113 36.1663C23.6071 35.9954 23.4473 35.7776 23.3457 35.5315L23.2185 35.2838H18.5556V25.587H23.6372" stroke="white" stroke-linecap="round" stroke-linejoin="round"/>
<path fill-rule="evenodd" clip-rule="evenodd" d="M23.6371 29.803H28.2475C29.8309 29.803 31.2793 28.6326 31.9914 26.7781C32.7024 24.9227 32.5548 22.701 31.6106 21.035L31.5979 20.967V18.4947C31.5979 16.819 30.1437 15.4688 28.3369 15.4688H28.2456V18.8416V18.7561C28.2456 20.9486 23.6362 23.4772 23.6362 26.0067" fill="white"/>
<path d="M23.6371 29.803H28.2475C29.8309 29.803 31.2793 28.6326 31.9914 26.7781C32.7024 24.9227 32.5548 22.701 31.6106 21.035L31.5979 20.967V18.4947C31.5979 16.819 30.1437 15.4688 28.3369 15.4688H28.2456V18.8416V18.7561C28.2456 20.9486 23.6362 23.4772 23.6362 26.0067" stroke="white" stroke-linecap="round" stroke-linejoin="round"/>
<path d="M38.323 23.0576H34.0915C33.1773 23.0576 32.4362 23.8031 32.4362 24.7226C32.4362 25.6422 33.1773 26.3876 34.0915 26.3876H38.323C39.2372 26.3876 39.9783 25.6422 39.9783 24.7226C39.9783 23.8031 39.2372 23.0576 38.323 23.0576Z" fill="white" stroke="white" stroke-linejoin="round"/>
<path d="M38.3493 26.4303H33.227C32.3273 26.4303 31.5979 27.1757 31.5979 28.0953C31.5979 29.0149 32.3273 29.7603 33.227 29.7603H38.3493C39.249 29.7603 39.9784 29.0149 39.9784 28.0953C39.9784 27.1757 39.249 26.4303 38.3493 26.4303Z" fill="white" stroke="white" stroke-linejoin="round"/>
<path d="M33.0648 29.8448H37.6732C38.4833 29.8448 39.1401 30.5903 39.1401 31.5099C39.1401 32.4294 38.4833 33.1749 37.6732 33.1749H33.0648C32.2547 33.1749 31.5979 32.4294 31.5979 31.5099C31.5979 30.5903 32.2547 29.8448 33.0648 29.8448Z" fill="white" stroke="white" stroke-linejoin="round"/>
<path d="M32.9025 33.2175H36.999C37.719 33.2175 38.3026 33.963 38.3026 34.8825C38.3026 35.8021 37.719 36.5477 36.999 36.5477H32.9025C32.1825 36.5477 31.5989 35.8021 31.5989 34.8825C31.5989 33.963 32.1825 33.2175 32.9025 33.2175Z" fill="white" stroke="white" stroke-linejoin="round"/>
<path d="M20.0876 21.2984H13.75V37.8126H20.0876V21.2984Z" fill="white"/>
<path d="M16.9187 34.6203C17.503 34.6203 17.9766 34.144 17.9766 33.5565C17.9766 32.9691 17.503 32.4929 16.9187 32.4929C16.3345 32.4929 15.8609 32.9691 15.8609 33.5565C15.8609 34.144 16.3345 34.6203 16.9187 34.6203Z" fill="#F0F4F7"/>
</g>
<defs>
<linearGradient id="paint0_linear_36_773" x1="60.6299" y1="-374" x2="-195.793" y2="-290.641" gradientUnits="userSpaceOnUse">
<stop offset="0.466322" stop-color="#B463FD"/>
<stop offset="0.536558" stop-color="#6D94FD"/>
<stop offset="0.618696" stop-color="#71C5FF"/>
<stop offset="0.713132" stop-color="#3FFAFE"/>
</linearGradient>
<clipPath id="clip0_36_773">
<rect width="55" height="55" fill="white"/>
</clipPath>
</defs>
</svg>
